<?xml version="1.0" encoding="utf-8"?>
<svg version="1.1" id="Calque_1" xmlns="http://www.w3.org/2000/svg" xmlns:xlink="http://www.w3.org/1999/xlink" x="0px" y="0px"
	 viewBox="0 0 48 48" style="enable-background:new 0 0 48 48;" xml:space="preserve">
<g>
	<path d="M24,48L0.5,32.8V15.2L24,0l23.5,15.2v17.6L24,48z M5.4,30.1l18.6,12l18.6-12V17.9L24,5.9l-18.6,12V30.1z"/>
	<path d="M24,34.4L1.5,18.6l3-4L24,28.5l19.5-13.9l3,4L24,34.4z"/>
	<path d="M43.7,33.4L24,19.8L4.3,33.4l-2.7-4L24,13.9l22.4,15.6L43.7,33.4z"/>
	<path d="M21.5,4.2h4.9v12.5h-4.9V4.2z M21.5,31.3h4.9v12.5h-4.9V31.3z"/>
</g>
</svg>
